<?xml version="1.0" encoding="UTF-8"?>
<svg id="Layer_1" xmlns="http://www.w3.org/2000/svg" width="25" height="25" version="1.1" viewBox="0 0 25 25">
  <!-- Generator: Adobe Illustrator 30.4.0, SVG Export Plug-In . SVG Version: 2.1.4 Build 226)  -->
  <path d="M0,7.48v2.28c0,.59.61.98,1.13.71l1.38-.71.59-.3h.02s2.19-1.14,2.19-1.14l.11-.06,1.03-.53.94-.49c.57-.3.57-1.13,0-1.43l-.94-.49-1.03-.53-.11-.06-2.19-1.13h-.02s-.59-.31-.59-.31l-1.38-.71c-.52-.27-1.13.12-1.13.71v1.58h0v2.6ZM14.06,4.93c-.86,0-1.56.71-1.56,1.6s.7,1.6,1.56,1.6h7.81v11.18H6.25v-4.79c0-.88-.7-1.6-1.56-1.6s-1.56.71-1.56,1.6v4.79c0,1.76,1.4,3.19,3.12,3.19h15.62c1.73,0,3.12-1.43,3.12-3.19v-11.18c0-1.76-1.4-3.19-3.12-3.19h-7.81ZM7.81,11.32c0-.88.7-1.6,1.56-1.6h9.38c.86,0,1.56.71,1.56,1.6s-.7,1.6-1.56,1.6h-9.38c-.86,0-1.56-.71-1.56-1.6ZM9.38,14.52c-.86,0-1.56.71-1.56,1.6s.7,1.6,1.56,1.6h6.25c.86,0,1.56-.71,1.56-1.6s-.7-1.6-1.56-1.6h-6.25Z" fill="#fff" fill-rule="evenodd"/>
</svg>