<?xml version="1.0" encoding="UTF-8"?>
<svg id="Layer_1" xmlns="http://www.w3.org/2000/svg" width="25" height="25" version="1.1" viewBox="0 0 25 25">
  <!-- Generator: Adobe Illustrator 30.4.0, SVG Export Plug-In . SVG Version: 2.1.4 Build 226)  -->
  <path d="M4.34,0c-.74,0-1.34.61-1.34,1.36v22.28c0,.75.59,1.36,1.34,1.36h16.33c.74,0,1.34-.61,1.34-1.36V6.9h-4.92c-1.01,0-1.89-.74-1.89-1.73V0H4.34ZM16.13,0v5.17c0,.41.38.78.95.78h4.92L16.13,0ZM7.6,8.68h9.8l.13,2.86h-.34c-.06-.5-.15-.87-.26-1.08-.18-.35-.43-.6-.74-.76-.3-.17-.7-.25-1.19-.25h-1.7v9.3c0,.75.08,1.21.24,1.4.22.25.57.38,1.04.38h.42v.33h-5.09v-.33h.42c.51,0,.87-.16,1.08-.47.13-.19.2-.63.2-1.31v-9.3h-1.45c-.56,0-.96.04-1.19.13-.31.11-.57.34-.79.66-.22.32-.35.76-.39,1.31h-.34l.14-2.86Z" fill="#f9f9f9"/>
</svg>