<?xml version="1.0" encoding="UTF-8"?>
<svg id="Layer_1" xmlns="http://www.w3.org/2000/svg" width="25" height="25" version="1.1" viewBox="0 0 25 25">
  <!-- Generator: Adobe Illustrator 30.4.0, SVG Export Plug-In . SVG Version: 2.1.4 Build 226)  -->
  <path d="M18.21,8.73l-1.82-.91h-7.78l-1.82.91c-.79.4-1.29,1.21-1.29,2.1v11.83c0,1.29,1.04,2.34,2.33,2.34h9.33c1.29,0,2.33-1.05,2.33-2.34v-11.83c0-.89-.5-1.7-1.29-2.1ZM16.39,21.09c0,.43-.35.78-.78.78h-6.22c-.43,0-.78-.35-.78-.78v-8.59c0-.43.35-.78.78-.78h6.22c.43,0,.78.35.78.78v8.59ZM15.32,4.69h-5.64C10.05,3.02,10.74.54,11.72,0h1.56c1.01.54,1.69,3.02,2.05,4.69ZM8.61,7.03v-.78c0-.43.35-.78.78-.78h6.22c.43,0,.78.35.78.78v.78h-7.78ZM9.39,12.5h6.22v8.59h-6.22v-8.59Z" fill="#fff"/>
</svg>